<?xml version="1.0" encoding="UTF-8"?>
<!DOCTYPE svg PUBLIC "-//W3C//DTD SVG 1.1//EN" "http://www.w3.org/Graphics/SVG/1.1/DTD/svg11.dtd">
<!-- Creator: CorelDRAW 2018 (64-Bit Evaluation Version) -->
<svg xmlns="http://www.w3.org/2000/svg" xml:space="preserve" width="8.5in" height="11in" version="1.1" style="shape-rendering:geometricPrecision; text-rendering:geometricPrecision; image-rendering:optimizeQuality; fill-rule:evenodd; clip-rule:evenodd"
viewBox="0 0 8500 11000"
 xmlns:xlink="http://www.w3.org/1999/xlink">
 <defs>
  <style type="text/css">
   <![CDATA[
    .str1 {stroke:#FEFEFE;stroke-width:6.94;stroke-miterlimit:2.61313}
    .str0 {stroke:#373435;stroke-width:6.94;stroke-miterlimit:2.61313}
    .fil1 {fill:#FEFEFE}
    .fil0 {fill:#201E1E}
   ]]>
  </style>
 </defs>
 <g id="Layer_x0020_1">
  <metadata id="CorelCorpID_0Corel-Layer"/>
  <g id="_2773321655920">
   <rect class="fil0 str0" x="-6216.99" y="594.8" width="8780.43" height="8136.7"/>
   <g>
    <path class="fil1 str1" d="M1099.78 3005.18l223.38 3.2 -2.58 4085.9 -225.35 0.25 4.54 -4089.35zm-5913.99 4091.18c-14.55,-80.44 -5.22,-876.54 -4.43,-1026.87l0.78 -2046.85c-0.5,-154.7 -8.61,-930.14 4.47,-1017.77 43.24,-17.61 189.61,-17.61 235.77,0.91l-3.82 4088.86c-42.84,16.52 -187.11,14.75 -232.77,1.73zm2956.08 -683.99l2045.37 3.46 -2.6 224.37 -2042.24 -1.78 -0.53 -226.04zm-373.65 -217.28l-23.28 8.9 -8.26 7.4c-28.99,17.01 -17.47,10.69 -33.64,36.3 -21.76,54.36 -15.67,68.21 6.21,114.45l7.71 13.97c52.65,48.51 104.39,34.13 198.17,36.92l0.8 221.51 -566.13 9.08c-190.93,0.68 -382.17,0.35 -573.12,-0.12 -165.84,-0.41 -1052.54,11.5 -1137.22,-4.37l3.34 -1252.13 5230.17 2.76 -3.75 1250.88c-67.92,8.5 -164.12,2.69 -235.36,2.93 -37.97,0.14 -189.12,10.43 -220.15,-11.2l-0.22 -219.77c53.68,-0.59 116.01,-4.5 162.69,-2.41 -4.9,-14.57 -5.9,-8.67 12.15,-11.56l1.79 2.48c22.59,-30.06 67.7,-72.32 43.01,-140.25 -16.41,-45.16 -54.66,-73.72 -126.07,-75.04 -403.98,-7.48 -2710.07,-4.08 -2738.82,9.27zm601.35 -3068.28c12.12,-13.53 -8.84,-15.01 71.75,-13.24 441.65,9.76 2366.37,-19.54 2432.35,8.44 18.88,77.26 5.61,413.69 5.67,518.54 0.14,239.08 13.32,1468.82 -9.23,1530.39l-2474.15 0.13c-51.15,-3.99 -13.85,0.86 -27.59,-14.75l1.19 -2029.51zm-230.9 -2.11c11.83,12.47 5.21,-6.13 9.26,24.45l-0.14 1892.37c0.05,99 12.32,124.06 -42.09,129.15 -6.19,0.57 -29.24,-0.43 -37.11,-0.52 -346.94,-4.18 -2344.99,10.99 -2426.3,-4.56 -14.96,-41.31 -17.2,-2007.19 1.46,-2048.17 66.57,-10.6 1153.85,-3.93 1251.19,-3.93l1219.22 0.52c29.85,4.33 16.01,-6.09 24.5,10.69zm2898.3 -337.57l-31.71 12.81c-61.59,22.58 -75.47,53.12 -107.05,93.11l-5285.76 -0.54c-70.8,-110.3 -137.87,-95.91 -197.42,-117.91l2.21 -223.3 5678.96 1.69 -5.12 225.63 -54.11 8.51zm-6093.91 -570.5c-6.54,-19.26 -10.33,-16.93 8.73,-9.63 -7.27,-19.57 -10.27,-16.37 9.33,-9.22 -7.34,-18.86 -9.3,-14.68 9.92,-8.54 14.7,-40.95 85.66,-67.58 128.85,-79.4 99.76,-27.3 1280.96,-12.58 1412.98,-12.58l4093.7 -0.01c136.46,-0.06 272.91,0.02 409.37,-0.02l309.74 0.16c33.88,0.81 56.37,0.19 80.74,17.67 41.15,-2.99 64.4,15.48 100.71,30.63l5.92 14.86c13.09,-9.65 8.08,-9.12 10.37,7.9 31.85,6.44 61.27,45.35 81.77,82.65l7.77 10.66 5.05 14.19 12.16 11.84 9.92 37.74 -6768.05 -0.55c7.24,-38.61 33.16,-94.97 71.02,-108.36zm150.62 -335.8l-75.77 18.14c-155.33,34.28 -324.59,202.9 -363.16,351.51l-12.3 43.68c-138.07,383.74 277.38,213.06 545.53,260.58l-0.26 200.75c-9.3,45.67 -62.29,21.72 -123.96,63.79 -31.54,21.51 -52.55,40.8 -74.32,81.57l-13.67 39.2c-25.48,56.85 -15.4,2686.89 -13.33,3120.36 0.87,184.19 9.07,902.84 -1.88,1031.25 -48.42,7.59 -117.19,-12.2 -157.98,17.39l-14.18 4.43c-50.47,56.63 -85.51,110.57 -20.52,173.52 48.76,47.23 141.06,34.88 225.74,33.93l181.94 0 181.94 0 181.95 0 181.94 0.02 51.78 5.6c2.11,-1.5 5.05,-3.11 6.62,-4.04l12.93 -7.7c1.93,-1.13 4.31,-2.39 6.28,-3.52 1.9,-1.1 4.23,-2.26 6.1,-3.35 81.24,-47.62 88.51,-132.77 11.06,-193.89 -41.35,-20.91 -45,-18.31 -94.76,-19.45l-77.65 -0.58 -0.69 -123.93 0.43 -81.87c11.17,-14.46 4.69,-23.23 68.61,-22.4 24.13,0.31 48.41,1.47 73.02,1.49l427.56 0c187.86,-0.41 376.19,-1.39 564.02,-0.46 374.54,1.83 765.65,-12 1137.64,0.99 8.28,224.96 -59.58,516.63 181.4,435.98 1.78,-15.24 4.51,-10.07 20.35,-31.2 9.05,-12.06 12.84,-21.09 21.89,-29.61l4.6 -375.93 2043.74 3.54c6.15,181.11 -47.59,413.52 84.94,445.34 20.6,4.95 23.54,4.67 44.34,2.9 1.45,-0.13 23.59,-4.05 25.12,-4.47l60.72 -43c1.14,-34.11 -3.77,2.94 2.04,-21.29 8.7,-36.26 1.73,-5.15 6.03,-7.09l4.89 -375.99 454.65 3.83 -2.79 221.95c-113.81,10.69 -182.39,-23.9 -217.57,84.33 -14.63,69.16 16.52,105.3 57.93,126.98 23.94,22.71 69.55,17.28 109.17,16.82l181.94 0 181.95 0 181.94 0 181.94 0c43.88,-1 103.69,-6.87 141.01,5.18l73.22 -51.59c1.65,-2.02 7.04,-9.24 8.22,-10.76l8.44 -10.7 -0.31 -91.51c-33.88,-27.45 -20.98,-37.31 -69.61,-57 -47.92,-15.06 -82.15,-7.97 -133.69,-10.3 -15.15,-12.27 -22.74,-8.56 -22.38,-69.33l1.59 -191.25c-0.07,-84.94 -0.44,-169.78 -0.09,-254.72l0.06 -2565.38c0.8,-328.41 12.22,-685.06 -0.98,-1009.82l5.37 -34.04c-1.46,-2.07 -3.02,-4.98 -3.87,-6.57l-17.56 -40.35c-16.76,-44.24 -33.24,-66.37 -72.31,-95.41l-62.69 -37.78 -36.39 -8.43 -18.19 -2.02c-30.61,-21.63 -9.22,3.04 -19.65,-30.27l3 -197.38 480.59 -2.52c19.93,-12.3 28.22,-14.34 44.02,-29.04 10.89,-10.12 11.65,-13.4 20.78,-23.65 11.76,-13.2 7.92,-9.74 11.81,-11.09 15.44,-93.43 -22.68,-302.04 -73.34,-327.5 -11.67,-34.37 -20.9,-36.61 -27.43,-62.21l-30.39 -29.17c-30.61,-35.69 -38.69,-47.24 -82.47,-75.86 -17.69,-11.01 -113.11,-69.55 -121.43,-76.57 -64.92,-15.72 -116.15,-41.59 -189.18,-39.91l1.88 -2.19 -181.94 -0.7 -181.95 -0.01 -181.94 0.01 -181.94 -0.01 -181.95 0.01 -181.94 -0.01 -181.94 0.01 -181.95 -0.01 -181.94 0.01 -181.94 -0.01 -181.95 0.01 -181.94 -0.01 -181.94 0.01 -181.95 -0.01 -181.94 0.01 -181.94 -0.01 -181.95 0.01 -181.94 -0.01 -181.94 0.01 -181.95 -0.01 -181.94 0.01 -181.94 -0.01 -181.94 0.01 -181.95 -0.01 -181.94 0.01 -181.94 -0.01 -181.95 0.01 -181.94 -0.01 -181.94 0.01 -181.95 -0.01 -181.94 0.01 -181.94 -0.01 -181.95 0.01 -181.94 0.35 -81.87 9.38z"/>
    <path class="fil1 str1" d="M-2314.67 3578.14l8.74 1017.6c-0.04,21.24 0.7,43.27 0.42,64.3 -0.86,63.94 -6.66,57.11 -99.08,56.71 -235.83,-1.01 -1418.96,9.78 -1499.37,-4.2 -17.67,-54.53 -16.15,-1097.26 1.19,-1141.94 71.86,-11.46 672.09,-3.65 797.71,-3.65l785.31 7.04c1.01,-1.83 3.95,2.27 5.07,4.15zm-1785.57 -187.2l-8.08 10.11 -9 14.04 -11.44 98.06 0 181.94 0 181.95 0 181.94 0 181.94 0 181.94 0 181.95 -0.02 181.94c0.96,39.63 3.83,68.24 20.2,98.07l7.65 15.8c80.2,50.8 101.44,35.88 222.64,35.65l1291.78 0.41c87.94,0.03 175.88,-0.65 263.81,-0.41 260.87,0.72 138.65,-19.76 220.83,-37.36 -8.02,-21.97 -13.82,-18.02 7.77,-18.02l4.74 -21.37 3.16 -1400.95 3.52 -29.56 -7.5 -13.55c-64.96,-82.77 -78.57,-68.46 -205.22,-67.97l-1582.89 0.07c-89.42,-0.09 -177.64,-17.98 -221.94,43.38z"/>
    <path class="fil1 str1" d="M-3667.88 4340.98c-19.22,56.72 14.86,105.66 47.19,124.25 45.31,26.04 114.92,16.2 169.94,16.18 121.76,-0.06 252.25,4.74 372.94,-1.9l32.43 -9.1 43.21 -54.42c6.67,-34.43 10.85,-37.61 3.31,-72.96 -4.68,-21.94 -2.56,-5.79 -8.59,-26.47 -7.35,-25.19 -2.26,17.37 -3.98,-18.43 -20.27,-10.27 -35.11,-19.2 -57.28,-37.95 -102.13,-11.73 -239.48,-4.02 -345.66,-4.29 -122.83,-0.31 -220.83,-25.27 -253.52,85.09z"/>
    <path class="fil1 str1" d="M-4354.45 5150.63l0.03 -181.95 -0.03 -181.94 0.03 -181.94 -0.03 -181.95 0.03 -181.94 -0.03 -181.94 0.03 -181.94 -0.03 -181.95 0.03 -181.94 -0.03 -181.94 0 -181.95c10.05,-36.48 -13.62,-18.35 21.29,-25.78l54.54 -0.73 181.94 -0.03 181.95 0.07 181.94 -0.07 181.94 0.07 181.95 -0.07 181.94 0.07 181.94 -0.07 181.95 0.07 181.94 -0.07 181.94 0.07 181.94 -0.07 181.95 0.07 181.94 -0.07 52.05 1.97 -1.19 2033.11 -2470.64 2.46c-25.57,-7.13 -8.89,0.97 -21.29,-9.63zm2493.12 -2025.94c-8.49,-16.78 5.35,-6.36 -24.5,-10.69l-1219.22 -0.52c-97.35,0 -1184.62,-6.67 -1251.19,3.93 -18.66,40.98 -16.43,2006.86 -1.46,2048.17 81.31,15.55 2079.35,0.38 2426.3,4.56 7.88,0.09 30.93,1.09 37.11,0.52 54.41,-5.09 42.14,-30.15 42.09,-129.15l0.14 -1892.37c-4.05,-30.58 2.57,-11.98 -9.26,-24.45z"/>
    <path class="fil1 str1" d="M-3670.59 3889.83c-13.01,83.76 30.7,125.07 101.55,135.59l263.81 -0.75c67.13,-36.85 74.11,-50.35 85.72,-141 -28.29,-32.41 -30.2,-63.15 -79.85,-76.69 -45.14,-12.32 -102.82,-5.56 -151.37,-5.57 -112.35,-0.01 -191.5,-15.14 -219.85,88.43z"/>
    <path class="fil1 str1" d="M-4808.68 6970.05l0.11 -181.94 0.1 -181.95 0 -181.94 0.03 -181.94 0.1 -181.95 0.03 -181.94 0.07 -181.94 0.06 -181.95 0 -181.94 0.1 -181.94 0.06 -181.95 0 -181.94 0.11 -181.94 0.06 -181.95 0.09 -181.94 -0.03 -181.94 0.07 -181.94 0.06 -181.95 0.07 -181.94 0.03 -181.94 0.04 -181.95 0.99 -139.67 164 -0.93 55.43 -0.35 -0.2 140.96 0.07 181.95 -0.07 181.94 0.07 181.94 -0.07 181.95 0.07 181.94 -0.07 181.94 0.07 181.94 -0.07 181.95 0.07 181.94 -0.07 181.94 0.07 181.95 -0.07 181.94 0.07 181.94 -0.07 181.95 0.07 181.94 -0.07 181.94 0.07 181.95 -0.07 181.94 0.07 181.94 -0.07 181.95 0.07 181.94 0.38 122.17 -55.68 0.3 -164.77 -0.85 -1.4 -121.62zm-5.53 126.3c45.66,13.02 189.93,14.8 232.77,-1.73l3.82 -4088.86c-46.16,-18.52 -192.53,-18.52 -235.77,-0.91 -13.08,87.63 -4.98,863.07 -4.47,1017.77l-0.78 2046.85c-0.8,150.34 -10.12,946.43 4.43,1026.87z"/>
    <path class="fil1 str1" d="M-2084.07 6634.53l-2.15 0.93 -9.09 -0.06 -181.95 0 -181.94 0.06 -181.94 -0.06 -181.94 0.06 -181.95 -0.06 -181.94 0.06 -181.94 -0.06 -181.95 0.06 -181.94 -0.06 -181.94 0.06 -181.95 -0.06 -181.94 0.12 -54.54 -1.32c-19.77,-10.34 -10.18,18.88 -16.99,-28.02l0.06 -181.94 -0.06 -181.94 0.06 -181.95 -0.06 -181.94 0.06 -181.94 -0.06 -181.95 -0.17 -118.96 71.7 0.46 181.94 0 181.95 -0.05 181.94 0.05 181.94 -0.05 181.95 0.05 181.94 -0.05 181.94 0.05 181.95 -0.05 181.94 0.05 181.94 -0.05 181.94 0.05 181.95 -0.05 181.94 0.05 181.94 -0.05 181.95 0.05 181.94 -0.05 181.94 0.05 181.95 -0.05 181.94 0.05 181.94 -0.05 181.95 0.05 181.94 -0.05 181.94 0.05 181.95 -0.05 181.94 0.05 181.94 -0.05 181.95 0.05 181.94 0 46.06 1.67 2.33 116.84 0 181.95 0 181.94 0 181.94 0 181.95 0 181.94 -0.06 181.94 0.74 30.06 -49.08 -0.83 -181.94 0 -181.95 0.06 -38.15 -3.09c31.03,21.63 182.18,11.35 220.15,11.2 71.24,-0.24 167.44,5.57 235.36,-2.93l3.75 -1250.88 -5230.17 -2.76 -3.34 1252.13c84.68,15.87 971.38,3.96 1137.22,4.37 190.95,0.46 382.19,0.8 573.12,0.12l566.13 -9.08z"/>
    <path class="fil1 str1" d="M-1613.17 3124.55l63.68 -1.83 181.94 0.07 181.94 -0.07 181.95 0.07 181.94 -0.07 181.94 0.07 181.95 -0.07 181.94 0.07 181.94 -0.07 181.95 0.07 181.94 -0.07 181.94 0.07 181.95 -0.07 200.65 -0.93c30.16,6.6 14.99,-0.38 32.61,18.38l-0.36 9.09 0.03 181.95 0 181.94 0 181.94 0 181.95 0 181.94 0 181.94 0 181.94 0 181.95 0 181.94 0 181.94 -0.07 181.95 0.27 9.09c-136.05,12.91 -1028.72,0.84 -1242.87,0.84 -93.43,0.01 -1193.08,8.51 -1255.7,-4.24 13.74,15.61 -23.56,10.76 27.59,14.75l2474.15 -0.13c22.55,-61.57 9.37,-1291.31 9.23,-1530.39 -0.06,-104.85 13.2,-441.27 -5.67,-518.54 -65.97,-27.98 -1990.7,1.31 -2432.35,-8.44 -80.59,-1.77 -59.63,-0.29 -71.75,13.24l17.26 -2.26z"/>
    <path class="fil1 str1" d="M-2745.18 4436.72l7.93 9.9 8.52 9.25 9.28 8.46 5.88 7.44 45.14 6.91c74.78,13.12 153.85,13.59 213.52,-34.08 15.84,-12.66 0.04,-1.74 17.29,-13.45l-3.31 0.8c2.81,-21.11 -4.08,-20.93 12.39,-13.56 -3.64,-73.65 6.78,-109 -51.65,-143.49l-24.49 -15.32c-68.32,-6.36 -165.98,-17.42 -216.76,19.23 -51.65,37.27 -54.16,93.1 -23.73,157.91z"/>
    <path class="fil1 str1" d="M-3900.89 4604.8l0 -181.95 0 -181.94 0 -181.94 0 -181.94 0 -181.95 2.39 -117.89 1583.83 0.94 1.36 1127.36 -145.9 1.31 -181.94 -0.03 -181.94 0.03 -181.95 -0.03 -181.94 0.03 -181.94 -0.03 -181.95 0.03 -181.94 -0.03 -167.24 -1.2 -0.86 -100.78zm1586.23 -1026.66c-1.12,-1.88 -4.06,-5.97 -5.07,-4.15l-785.31 -7.04c-125.63,0 -725.85,-7.81 -797.71,3.65 -17.33,44.68 -18.86,1087.41 -1.19,1141.94 80.41,13.98 1263.54,3.19 1499.37,4.2 92.42,0.4 98.22,7.23 99.08,-56.71 0.28,-21.03 -0.46,-43.06 -0.42,-64.3l-8.74 -1017.6z"/>
   </g>
  </g>
 </g>
</svg>
